<?xml version="1.0" encoding="utf-8"?>
<!-- Generator: Adobe Illustrator 19.2.1, SVG Export Plug-In . SVG Version: 6.00 Build 0)  -->
<svg version="1.1" id="layer" xmlns="http://www.w3.org/2000/svg" xmlns:xlink="http://www.w3.org/1999/xlink" x="0px" y="0px"
	 viewBox="0 0 652 652" style="enable-background:new 0 0 652 652;" xml:space="preserve">
<style type="text/css">
	.st0{fill:#FFD200;}
	.st1{fill:#FFFFFF;}
	.st2{fill:#9FA1A4;}
</style>
<g>
	<path class="st0" d="M170.6,457.3c-74.6,0-135.3-60.7-135.3-135.3c0-74.6,60.7-135.3,135.3-135.3c74.6,0,135.3,60.7,135.3,135.3
		C305.9,396.5,245.2,457.3,170.6,457.3"/>
	<path d="M170.6,171.4C87.4,171.4,20,238.8,20,321.9c0,83.1,67.4,150.5,150.5,150.5c83.1,0,150.5-67.4,150.5-150.5
		C321.1,238.8,253.7,171.4,170.6,171.4 M170.6,457.3c-74.6,0-135.3-60.7-135.3-135.3c0-74.6,60.7-135.3,135.3-135.3
		c74.6,0,135.3,60.7,135.3,135.3C305.9,396.5,245.2,457.3,170.6,457.3"/>
	<path d="M266.1,342.9c6.5-9.9,7.2-29.1,5.8-35.5c-0.3-0.1-19.1-10.3-62.1-24.7c4.5-2.1,8.4-6.1,8.5-6.3
		c-0.6-1.4-13.4-9.9-19.6-11.7c9.5-6.1,25.9-23.8,29.1-27.4c-10-4.5-23.1-5.8-26.6-6c7.6-6,22-15.6,27.9-17.2
		c-0.2-0.2-8.5-4.3-21.8-4.6c-20.2-0.5-30.9,4-45.7,11.6c-0.1,0,5.7-14.9,6.6-17.6c-5.1,2.6-10.8,5.8-15.3,9.4
		c-9.3,7.2-18,13.2-25,22.4c-5,6.3-3.8,14-2.9,16.1c1.3,3.6,3,7.4,3.8,11.1c1.4,7.1,0.6,7.4,0.1,7.4c-5.4,1-9.8,4.7-13.6,9.4
		c-4.5,5.7-6.9,12.2-8.9,19.1c-1.6-0.6-7.9-3.1-18.5-3.1c-19.4,0-26.5,13.2-27.8,16.8c-5.5,15.2,2.7,35.5,2.7,35.5
		c0,0,0.8,14.7,4,23.6c1.1,3.3,6.9,4,10.6,4.2c9.6,0.4,8.8,13.6,6.3,20.6c0,0.1,13-2.2,14.1-15.1c0-0.1,5.8,3.7,7.7,7
		c0.1,0,6-6.6,3.5-15.3c9.5,11.4,11.4,32.3,11.6,32.2c2.4-1.8,6.4-6.7,6.4-6.7s-1.6,11.2-4.2,11.7c-2.6,0.4-5.6,0.9-5.6,0.9
		l-8.7,10.9h25.3c0.2-6.1,3.9-19.3,5.5-23.4c2,2.5,6.7,6.1,6.8,6.2c0.2-0.3-0.3-7.2,6.6-23.2c3.1,4.9,5.3,7.9,5.5,7.9
		c18.6-3.8,60.2-29.9,60.6-30.2c1,1.3,11.6,17.4,26.6,22.7c-3.4,10.6-21.6,27.9-23.4,28.3c-0.4,0.1-5.3,1-5.3,1l-8.7,10.8h26.7
		c2-12.8,23.6-28.1,29.3-39.5c1.3-2,0-3.9-0.2-4.4c-3.5-4.8-4.4-7.4-4-13.7C259.5,356.2,262.9,349.5,266.1,342.9"/>
	<path class="st1" d="M78.9,339.4c-3.4,0.1-6.6,1.9-8.1,5v1.9l9.2-3.2l1.6-3.2C80.8,339.5,79.8,339.4,78.9,339.4"/>
	<path class="st2" d="M157,372c2.8,4.4,4.8,7.2,5,7.1c16.9-3.5,47.2-22.5,47.6-22.8L157,372z"/>
	<path class="st2" d="M178.1,266.6l-11,7.3c0,0,16.2-0.7,35.3,4C202.3,277.8,193.1,269.3,178.1,266.6"/>
	<path class="st1" d="M209.8,241.8c-27.2,1.3-38.6,8.6-38.6,8.6l8.2-9.9c5.1-6.8,13.7-15.4,26.9-23.8
		c-49.6,19.9-59.8,34.3-59.8,34.3l2.7-12.1c0.3-2.2,3.3-12.7,3.8-15.3C136.6,237,132.1,245.5,134,252c1.3,4.4,6,14.2,6.2,20.9
		c0.2,7.8-2.5,14.6-4.8,23.5c0,0,28.7,9.3,44.1,5.6c0,0-6.8-5.3-6.9-8.4c19.6-5.5,29.5-16,29.7-15.9l0,0c-19.1-4.7-35.3-4-35.3-4
		l11-7.3h0c0,0,0,0,0,0C188.8,258.4,201.2,252.8,209.8,241.8"/>
	<path class="st2" d="M149.1,239c18.6-11.5,34.3-17.1,44.6-19.8c8-2.1,12.6-2.4,12.6-2.4c-49.6,19.9-59.8,34.3-59.8,34.3L149.1,239z
		"/>
	<path class="st2" d="M179.4,240.6c0,0,16.4-1.8,30.4,1.3c-27.2,1.3-38.6,8.6-38.6,8.6L179.4,240.6"/>
	<path class="st1" d="M83.9,328.1c5.3-2.2,9.8-10.3,11.4-18c-0.1-5.3-0.9-9.4-0.9-9.4c0.1,0.9-2.6,21.2-17.7,21.8
		c-3.5,0.1-4.9,0.8-5.4,4.9c-0.1,0.5,0,1,0,1.6v0v0C74.9,329.8,79,330.2,83.9,328.1"/>
	<path class="st2" d="M75,333.8c0,0,12.7,1.8,16.9-6.4c3.6-6.6,3.3-16.5,3.3-17.3v0c-1.5,7.7-6.1,15.8-11.4,18
		c-4.9,2-9,1.6-12.7,0.8v0v0C71.3,329.3,71.7,332.9,75,333.8"/>
	<path d="M614.3,419c0-1.7,1.3-2.8,2.9-2.8c1.5,0,2.9,1.1,2.9,2.8s-1.3,2.8-2.9,2.8C615.7,421.7,614.3,420.6,614.3,419 M617.2,416.8
		c-1.2,0-2.1,0.9-2.1,2.2s0.9,2.2,2.1,2.2c1.2,0,2.1-0.9,2.1-2.2S618.3,416.8,617.2,416.8 M616.7,420.5h-0.6v-3.1h1.2
		c0.8,0,1.2,0.2,1.2,0.9c0,0.6-0.4,0.8-0.8,0.8l0.8,1.4h-0.7l-0.7-1.3h-0.4V420.5z M616.7,418.7h0.5c0.4,0,0.6-0.1,0.6-0.4
		c0-0.3-0.2-0.4-0.6-0.4h-0.5V418.7z"/>
	<path d="M366.9,254h1.3c3.6,0,4.8-1.4,4.8-5.2c0-3.6-1.3-5-4.8-5h-1.3V254z M366.9,235.4h1c3.2,0,4.9-0.7,4.9-4.2
		c0-3.5-1.8-4.2-4.9-4.2h-1V235.4z M352.2,264v-37.1l-5.8-10h25.2c3.7,0,7.8-0.1,11,1.9c3.5,2.1,4.7,6.1,4.7,10
		c0,5.4-2.1,9.1-7.4,10.5v0.1c6,0.8,8.1,5.6,8.1,11.1c0,3.8-0.9,8.1-3.9,10.6c-3.3,2.7-7.6,2.8-11.7,2.8H352.2z"/>
	<path d="M564.5,241.2v7.6c0,3,0.1,5.2-3.7,5.2h-1.4v-37h-17.6l2.9,10V264h32.7v-22.8H564.5z"/>
	<path d="M596,250.3c0,0.3-0.2,3.7,2.8,3.7c3,0,2.9-3.3,2.9-3.7v-20.5c0-0.3,0.2-2.9-2.9-2.9c-3,0-2.8,3.3-2.8,3.6V250.3z
		 M616.4,250.4c0,11.6-7.1,14.5-17.5,14.5c-10.4,0-17.5-2.9-17.5-14.5v-19.8c0-11.6,7.1-14.5,17.5-14.5c10.4,0,17.5,2.9,17.5,14.5
		V250.4z"/>
	<path d="M502.4,233.1V217l-35.3,0l2.9,10l0,37.1h0v0l0,0h14.6v-17.8h9.3v-10.3h-9.3v-8.9c2.8-0.2,4,0.3,4.6,1.3
		c0.6,1,0.4,2.7,0.4,4.9H502.4z"/>
	<path d="M464.3,233.1V217l-35.3,0l2.9,10l0,37.1h0v0l0,0h14.6v-17.8h9.3v-10.3h-9.3v-8.9c2.8-0.2,4,0.3,4.5,1.3
		c0.6,1,0.4,2.7,0.4,4.9H464.3z"/>
	<path d="M411.9,217v33.7c0,0.9-0.2,3.3-2.9,3.3c-2.7,0-2.9-2.4-2.9-3.3V217h-17.6l2.9,10v22c0.1,5,0.5,8.9,4.5,12.5
		c3.5,3,8.8,3.5,13.1,3.5c4.2,0,9.6-0.5,13.1-3.5c4-3.5,4.4-7.5,4.5-12.5v-32H411.9z"/>
	<path d="M518.8,242.5l2.4-15.6h0.2l2.4,15.6H518.8z M532.9,217h-27.7l2.9,10l-6.4,37.1h13.4l1.6-10h9l1.8,10H541L532.9,217z"/>
	<path d="M526.5,311.6v13.2c0,5.1,0.1,9-6.4,9h-2.5v-64.1h-30.4l5,17.3v64.1h56.5v-39.5H526.5z"/>
	<polygon points="458.3,286.9 453.2,269.7 483.6,269.7 483.6,351.1 458.3,351.1 	"/>
	<path d="M581.7,333.9h2c5.5,0,7.2-2,7.2-7.9v-30.7c0-5.9-1.7-8.4-7.2-8.4h-2V333.9z M588.2,269.7c6.9,0,14.9,0.1,20.7,4.6
		c6.6,5.2,7.3,12.6,7.3,20.4v30.5c0,8-0.4,14.2-6.6,20c-5.8,5.5-13,6-20.7,6h-32.7v-64.1l-5-17.3H588.2z"/>
	<polygon points="423.4,269.7 417.9,311.6 417.7,311.6 412.2,269.7 394.4,269.7 388.9,311.6 388.7,311.6 383.2,269.7 346.4,269.7 
		359.6,286.9 371.4,351.1 395.3,351.1 403.2,322.9 403.4,322.9 411.3,351.1 435.2,351.1 450.1,269.7 	"/>
	<polygon points="407.8,356.8 403.4,390.2 403.2,390.2 398.8,356.8 384.6,356.8 380.2,390.2 380.1,390.2 375.7,356.8 346.4,356.8 
		357,370.5 366.3,421.6 385.4,421.6 391.7,399.1 391.8,399.1 398.1,421.6 417.2,421.6 429.1,356.8 	"/>
	<polygon points="435.2,370.5 431.2,356.8 455.4,356.8 455.4,421.6 435.2,421.6 	"/>
	<polygon points="493,386.1 493.2,386.1 493.2,356.8 509.5,356.8 509.5,421.6 489.9,421.6 477.9,392.5 477.7,392.5 477.7,421.6 
		462,421.6 462,370.5 458,356.8 481.7,356.8 	"/>
	<path d="M562.3,379.3h-19.4v-1.4c0-2.9,0.6-7.3-3.9-7.3c-3.8,0-4.1,3.5-4.1,6.3v26.7c0,0.7,0.3,4.2,4.1,4.2c4.5,0,3.9-4.5,3.9-7.4
		v-3.8l-4-13.7h23.5v33c-6.4,5.7-16,7-24.2,7c-5.8,0-12.5-0.5-17.1-4.3c-6-5.1-6.3-11-6.3-18.1v-24.7c0-5.7,0.7-11.3,5.4-15.3
		c4.7-4,11.1-5.1,17.1-5.1c8.8,0,18,2,25.1,7.5V379.3z"/>
	<path d="M595.6,377.4c0-2.9-0.1-6.9-4-6.9c-2.6,0-3.9,0.8-3.9,3.3c0,1.3,0.2,2.6,1.2,3.6c1.1,1.2,4,2.1,5.7,2.6
		c4.8,1.3,11.3,3,15.4,5.8c2.3,1.6,4.1,3.5,5,6.2c1.1,2.8,1.5,5.9,1.5,8.9v0.3c0,12.5-5.5,21.7-24.8,21.7c-8.2,0-16.9-1.6-23.5-6.8
		v-17.4h19.7c0,3.9-0.1,5.7,0.6,7c0.7,1.3,2.1,2.1,3.6,2.1c2.7,0,3.9-1.6,3.9-3.9c0-6.7-4.2-7.2-9.8-8.6c-12.2-3-19.1-6-19.1-20
		v-1.4c0.3-7,1.4-10.4,6.7-14.4c4.3-3.3,10.6-4,16.6-4c8.8,0,16.6,1.8,23.9,6.8v15.3h-18.8V377.4z"/>
</g>
</svg>
